<?xml version="1.0" encoding="UTF-8"?>
<svg id="Layer_1" xmlns="http://www.w3.org/2000/svg" version="1.1" viewBox="0 0 567 567">
  <!-- Generator: Adobe Illustrator 30.1.0, SVG Export Plug-In . SVG Version: 2.1.1 Build 136)  -->
  <defs>
    <style>
      .st0 {
        fill: #dea571;
      }

      .st1 {
        fill: #da995f;
      }

      .st2 {
        fill: #d9965b;
      }

      .st3 {
        fill: #d89153;
      }

      .st4 {
        fill: #e4b388;
      }

      .st5 {
        fill: #d48743;
      }

      .st6 {
        fill: #c8650c;
      }

      .st7 {
        fill: #dfa673;
      }

      .st8 {
        fill: #fea658;
      }

      .st9 {
        fill: #e2ae81;
      }
    </style>
  </defs>
  <path class="st6" d="M381.72,334.42c-.19.05-.32-.07-.36-.19-.11-.31.08-.6.36-.53.02.19.04.52,0,.72Z"/>
  <path class="st6" d="M228.28,229.45c-.11.03-.25,0-.36,0-.02-.43.38-.43.36,0Z"/>
  <path class="st6" d="M244.82,207.88c-.35-.3-.73-.23-1.08,0-.32.44-1.53,2.63-2.9,2.79-3.86.46-4.52-.11-7.25-2.26-.15-.12-.34-.18-.52-.18h-2.99c-.25.01-.54.36-.37,1h0c-.2.13.17.88.36,1.17.81,1.56,4.24,2.89,3.49,5.65-1.46,5.41-3.1,3.7-3.19,8.39-.02.84-.47,1.6-.33,2.52.2,1.31-.74,2.21-1.77,2.51-.23,0-.32.01-.36,0-1.1.03-1.93-.9-1.81-2.14.16-1.52-.71-2.46-1.47-3.56l-2.08-3c-.68-.98-1.74-1.83-1.81-3.17-.04-.77-.29-1.77.04-2.47l2.38-5.1c.49-1.04-.11-1.96-.82-2.53-2.45-1.97-4.84,3.06-7.35,3.24l-.05.02c-.74,0-1.78.24-2.53-.35-4.58-3.64-6.6-2.81-7.68-4.52-.52-.83-.21-1.51.37-2.08,2.93-2.91,4.11-1.72,4.97-2.59.71-.71,1.17-1.74,2.22-2.08,3.81-1.23,2.99-.32,5.55.42,2.09.61,3.07,1.53,3.94.97.21-.13.37-.45.37-.91v-4.18c0-.09-.03-.17-.07-.25-.49-.91-1.17-1.6-1.76-2.41-.52-.72-.75-5.04.67-6.92.62-.83,1.47-2.54,1.65-2.91.02-.05.05-.09.09-.13,1.25-1.32,3.11-6.24,3.01-7.71-.06-.93.87-1.55,1.59-1.44,1.64.23,1.5,2.62,1.04,4.04-.08.24-.1.49-.04.73.5,1.98,1.09,3.86,1.98,5.7.09.19.22.35.38.49,1.58,1.4,3.06,3.07,3.26,5.26.1,1.12-2.25,4.01-2.72,4.37-.8.62-.55,1.25-.53,2.08l.09,3.93c0,.43.4.76.82.69,2.86-.49,1.43-1.6,2.66-2.18.61-.29,1.2-.85,1.93-.92,2.31-.22,5.1-.36,6.47,1.66,1.63,2.4,2.74.03,6.08,2.08.2.12.34.32.41.54.75,2.12,1.91,1.09.12,4.44-.41.77-1.06,1.29-1.97,1.29h-2.52Z"/>
  <path class="st6" d="M381.72,333.7c-.23.28-.23.45,0,.72-.33,1.71-.64,3.13,0,4.7.51,1.24.58,2.9,1.42,3.96,1.24,1.57,2.88,2.88,3.25,5,.19,1.09-.11,2.31-.98,2.96-.66.49-.93,1.24-1.49,1.74-.69.61-1.24,1.07-1.15,2.14.1,1.19.01,2.32.02,3.41,0,.71.6,1.24,1.31,1.24.08,0,.16,0,.25.01.43.03.84-.17,1.08-.52,1.34-1.99,3.74-2.83,6.09-2.09.77.24,1.56.11,2.18.73l1.78,1.8c1.88,1.9,4.34-.55,5.83,2.47.51,1.04.92,2.12.38,3.31-.31.69-.94,1.49-1.94,1.9-2.05.82-1.54-.02-3.26-.03-.29-.19-.44-.23-.72,0-.98,1.21-1.85,2.3-3.38,2.74-1.7.5-4.49-.5-4.76-.74l-1.81-1.62c-.18-.16-.41-.27-.65-.31-.96-.15-3.06-.28-3.42.51-.25.36-.25.86,0,1.21.7,1.43,4.04,3.13,3.48,5.23-.39,1.44-.65,2.79-1.47,4-.61.9-1.54,1.68-1.85,2.79-.97,3.53-.02,4.53-1.43,6.58-.21.31-.57.5-.95.52-.43.02-.91-.07-1.25-.16-2.38-.63.35-2.89-2.56-5.73-.6-.59-.72-1.39-1.18-2.09-1.62-2.48-4.09-3.98-1.15-8.68.79-1.26,1.53-2.46,1.78-3.94.08-.5-.62-1.43-1.06-1.6-1.44-.59-2.52.41-3.6,1.19l-1.25.9c-.55.4-.99.71-1.54.63l-.51.26c-.14.07-.29.12-.45.13-3.23.31-3.64-2.5-8.41-3.98-.74-.23-1.53-.81-1.88-1.51-.21-.42-.12-.93.17-1.29,2.61-3.13,4.66-2.33,5.17-2.78l2.29-1.99c.6-.52,1.69-.6,2.56-.68,1.62-.16,4.38,1.95,6.34,2.16.59.06,1.12-.36,1.27-.93.58-2.15.67-4.5-1.08-6.05-1.13-1-1.35-4.95.46-7.61.39-.58.9-1.01,1.31-1.57.81-1.07,1.15-2.39,1.88-3.52,1.23-1.89,1.6-3.98,2.18-6.15.15-.54,1.41-.99,1.84-.75.59.33.64.99.88,1.36Z"/>
  <path class="st6" d="M342.58,55.78c.55.76,2.1,5.13,2.63,6.07,1.95,3.47,4.2,4.73,3.2,7.22-.28.71-.27,1.52-.67,2.2l-1.07,1.8c-.69,1.15-1.51,2.14-.98,3.41s1.47,1.73,2.75,1.24c2.54-.98,1.3-2.11,5.14-3.17,1.78-.49,2.93.35,4.16,1.44,3.25,2.86,5.57,1.72,6.63,4.68.15.71-3,2.77-3.01,2.78l-2.3.58c-.14-.2-.21-.19-.36,0-.59.02-.56.78-1.02,1.2-1.32,1.22-3.6,1.86-5.32,1.13l-3.01-1.28c-.95-.4-1.7-1.06-2.82-.62l-.42,1.73c-.28,1.17-.26,2.39-.04,3.55.04.2.14.39.27.55,2.15,2.6,2.41,6.5.68,8.7-1.52,1.93-4.5,7.01-4.87,9.15l-.36,1.08c.02.57-.09,1.17-.54,1.49-.37.26-1.09.57-1.68.24-1.67-.93.3-3.85-.52-5.85.04.09-1.18-4.39-1.41-4.73-.94-1.34-2.31-2.21-3.08-3.76-.69-1.38-.56-3.05.54-4.2l2.32-2.42c.21-.22.33-.51.33-.81l.08-4.37c.01-.65-.51-1.2-1.16-1.18-1.65.04-1.39.94-2.01,1.57-2.07,2.12-7.31,1.86-8.74-.38-1.88-2.96-3.5-.38-6.01-2.29-.5-.38-.7-.48-.98-1.25-.31-.84-.42-1.26-.29-1.98.37-2.07,1.9-3.44,4.1-3.22.6.06,1.29.14,1.83.39.83-.52,1.46-1.36,2.16-2.06,1.23-1.23,4.22-1.02,5.84-.26,1.15.53,1.92,1.38,2.84,2.21.84.31,1.82.12,2.76.1.37,0,.68-.28.74-.65.07-.52.15-1.03-.16-1.35l-2.44-2.59c-.5-.53-1.02-1.41-.98-2.2.07-1.4,1.3-4.16,2.08-5.1.73-.89,1.45-1.55,1.46-2.88,0-.68.44-1.34.4-2.1-.08-1.34,0-2.77.94-3.67.63-.6,1.25-.65,1.99-.41"/>
  <path class="st6" d="M244.82,207.88h-1.08c.17-.24.11-.44.53-.39.29.03.6,0,.55.39Z"/>
  <path class="st6" d="M229.55,208.85c-.38.05-.06.48-.06.2,0-.32-.28.94.09.94l-.03-1.14Z"/>
  <path class="st6" d="M341.25,110.7c-.01-.37.4-2.49.9-2.57-.07.39-.51,2.33-.9,2.57Z"/>
  <path class="st6" d="M381.41,369.16c-.17-.04.01-.34-.02-.46-.06-.26-.41-1,.05-1.13l-.04,1.59Z"/>
  <path class="st6" d="M396.47,367.16h-.72c.08-.1.03-.3.22-.35s.32.04.5.35Z"/>
  <path class="st6" d="M368.38,368.42c-.15.21-1.11.6-1.41.54.03-.36,1.12-.57,1.41-.54Z"/>
  <path class="st4" d="M323.8,409.98h4.32"/>
  <path class="st0" d="M359.42,409.98c-.03.11-.06.35-.36.35h-3.24c-.07-.17.1-.34.36-.34h3.23Z"/>
  <path class="st6" d="M338.91,410.34c-.16.13-.21.4-.71.39l-1.81-.03c-.22-.6,2.2-.29,2.52-.36Z"/>
  <path class="st7" d="M359.78,401.7c.03-.38-.19-2.46.36-2.16"/>
  <path class="st5" d="M360.14,385.87"/>
  <path class="st6" d="M351.86,409.98c.48,0,1.25-.23,1.44.36"/>
  <path class="st9" d="M360.14,386.95v-1.08"/>
  <path class="st3" d="M347.9,391.63c-.17.05-.32-.05-.36-.21-.07-.26.18-.44.36-.51-.03.23.04.49,0,.72Z"/>
  <path class="st2" d="M347.19,392.35c-.11.03-.25-.04-.36,0-.02-.43.38-.43.36,0Z"/>
  <path class="st1" d="M359.78,392.71c.04-.18.18-.32.36-.36,0,.23-.23.29-.36.36Z"/>
  <path class="st6" d="M316.24,429.4c-.43.02-.42-.39,0-.36-.01.12.02.24,0,.36Z"/>
  <path class="st6" d="M359.06,84.02c-.11.03-.24-.02-.36,0,.03-.42.37-.42.36,0Z"/>
  <path class="st8" d="M230.1,220.51c-1.99,2.5-.54,6.65-1.71,7.96-.2.22-.47.43-1.02-.01l-.88-3.11c-.01-.05-.03-.1-.06-.14-.43-.63-3.57-5.16-3.98-5.65-2.96-3.53,1.89-7.05,1.92-9.88.02-1.99-1.48-3.53-3.45-3.29-1.54.19-2.57,1.11-3.49,2.26s-2.46,2.01-3.86,1.37c-1.2-.55-2.12-1.45-3.23-2.12-3.1-1.86-4.13-.94-5.04-2.73,3.04-3.92,3.98-.92,6.18-3.94,1.14-1.56,3.33-1.56,4.97-.88l3.52,1.46c.76.31,1.86.07,2.64-.33.25-.13.41-.38.43-.66.71-8.64-.96-6.09-1.86-8.71-1.5-4.34,2.96-7.92,3.44-9.66l1.42-5.17c.19-.68.05-2.21.84-2.3.37-.04.67.36.61.79-.25,1.87-.1,3.56.11,5.41.61,5.32,2.64,3.8,4.55,7.45.54,1.02.37,2.18-.35,3.05l-2.42,2.96c-.61.74-.03,1.95.01,2.84l.21,4.5c0,.18.14.35.31.38.87.15,1.68-.16,2.55-.17,1.01-.02,1.69-.27,2.08-1.25,1.02-2.54,5.51-1.69,6.29-.89,3.9,3.95,5.32.98,6.63,2.42.53.58,1.12,1.36,1.31,2.11.21.83-.54,1.8-1.01,2.22-1.94,1.72-3.91-1.22-5.73,1.63-.9,1.41-2.43,1.95-4.01,1.69-4.55-.74-2.33-3.94-8.61-2.25-.09.02-.17.09-.2.17-1.18,2.72.2,3.46,2.01,4.88,2.58,2.03.46,5.6-1.14,7.6Z"/>
  <path class="st8" d="M383.92,375.13c-1.25,4.26-3.42,2.69-3.65,8.93-.04,1.21-.14,3.42-1.6,3.1-1-.22-.14-2.71-1.25-4.22-.74-1.01-1.4-1.94-1.98-3.06-1.22-2.37-3.88-3.32-1.1-7.82.58-.95,1.13-1.71,1.62-2.72.78-1.62.27-3.82-1.53-4.52s-3.55.16-4.69,1.53c-.97,1.17-2.41,2.21-3.97,1.69s-3.28-2.98-6.71-3.86c-.64-.16-1.56-.71-1.62-1.35-.01-.13.06-.26.16-.35,3.44-3.47,3.45-.37,6.21-3.51,1.26-1.44,3.38-1.3,4.99-.55l2.97,1.37c1.04.48,2.46.35,3.36-.26.44-.3.26-.94.27-1.35.03-1.68.46-3.32.1-5-.19-.85-.99-1.43-1.39-2.13-1.04-1.81-.83-3.96.3-5.61l3.04-4.45c1.03-1.52,1.79-8.27,2.99-7.75.47,1.21-.06,2.28,0,3.42l.18,3.17c.24,4.2,1.67,3.69,3.61,6.39.99,1.38.9,3.26-.23,4.52l-2.25,2.53c-.09.1-.14.23-.13.36l.16,5.74c.02.82.69,1.47,1.5,1.49,1.46.03,2.87,0,3.36-1.03,1.39-2.89,5.82-1.55,6.45-.87,1.26,1.35,2.36,2.5,4.48,2.3,1.74-.16,2.67.43,3.28,2.44.25.81-.58,2.04-1.34,2.46-1.96,1.08-3.67-1.11-5.26.88-1.07,1.35-2.72,2.14-4.42,1.87-4.2-.68-1.47-3.53-8.32-2.77-.23.03-.42.21-.47.44-.34,1.89-.75,2.37.69,3.78,1.83,1.8,3,1.93,2.17,4.77Z"/>
  <path class="st8" d="M340.71,110.03c-1.29.78-.51-2.87-.54-3.39l-.21-3.56c-.08-1.4-.61-2.79-1.64-3.69-1.89-1.65-4.05-4.06-1.94-6.39l2.39-2.64c.12-.13.19-.31.18-.49l-.11-6.4c0-.43-.35-.79-.78-.81-1.78-.1-3.37-.35-4.13,1.04-1.63,3-5.92,1.34-6.34.89-1.39-1.48-2.59-2.72-4.93-2.34-1.97.32-2.84-1.99-2.93-2.61-.13-.9.73-2.07,1.55-2.4,1.89-.76,3.82,1.09,5.18-.97,1.91-2.89,5.83-1.85,7.31-.02,1.34,1.64,3.32,1.31,5.53.92,2.49-4.99-3.89-4.11-2.74-8.4.5-1.86,1.64-3.28,2.78-4.81,1.83-2.45.15-7.48,2.27-7.66.56-.05.95.4.89,1.07-.17,1.89.73,3.1,1.64,4.53l2.09,3.28c.44.69,1.14,1.47,1.23,2.33.31,3.04-2.64,5.21-3.09,7.56-.36,1.88.88,3.73,2.82,3.83,1.68.09,2.99-.87,3.99-2.08s2.61-1.93,4.05-1.2c1.17.59,2.08,1.55,3.17,2.26,2.74,1.78,3.96,1.04,4.87,2.82-3.75,4.1-3.57.47-6.51,3.86-1.28,1.47-3.53,1.17-5.12.44l-3.24-1.49c-.82-.38-1.73-.1-2.57.26-.35.15-.58.49-.6.87l-.26,4.43c-.06.96.22,1.76.85,2.46,3.97,4.37-2.27,9.48-2.82,11.26l-1.55,4.98c-.16.52-.14,1.9-.74,2.26Z"/>
  <path class="st6" d="M358.57,410.34h-5.13c-.09,0-2.26-.08-2.34-.11l-2.12-.07h0c-.9,0-1.39-2.53-2.52-2.63-4.94-.43-4.72.44-7.54,2.81-.83.12-1.67.24-2.52.36-.32,0-1.07-.11-1.28-.51-.52-.96,0-2.05.2-3.08.16-.81-.24-1.69.14-2.4.41-.76,1.31-1.07,1.71-1.95.58-1.26.49-3.39-.68-4.3-.87-.68-1.67-1.18-1.54-2.53.28-2.78-1.16-5.73-2.37-4.92-2.37,1.58-2.31,5.81-2.38,5.95-.82,1.57-1.56,2.88-1.4,4.78s.59,2.46,2.48,3.72c.07.99.33,2.33-.07,3.28-.53,1.23-2.06,1.33-3.08,1.24-1.33.31-3,.3-4.32,0-2.29.25-1.44-1.11-4.29-2.55-1.39-.7-2.9-.37-3.9.84-1.2,1.46-4.17,2.04-4.68,1.96-1.99-.32-4.5-.92-5.33,1.76-.31,1.01.11,2.12,1.35,2.25,3.34.35,5.06-1.59,7.63,1.39.9,1.04,2.88,2.19,4.38,1.37,1.73-.94,3.03-3.27,5.51-2.63s4.74-.16,5.61,1.11c.47.68.6,1.7.84,2.45.39,1.25-.24,2.34-.85,3.36-.84,1.4-1.31,3.43-.58,4.92.41.83,1.62,1.19,1.74,2.23s.74,4.78,2.27,4.53c1.02-.16,1.62-2.54,3.05-4.53,3.04-4.23-2.56-6.72-2.33-12.02.08-1.96.11-1.07,4.69-1.73,1.15-.17,4,2.07,5.39,2.41,2.33-.94,2.63-1.3,4.1-3.11l9.61-.1c1.08-.01,1.99.66,1.77,1.83-.05.25.7,3.44.3,6.46-.22,1.65-.59,3.19-.05,4.87.49,1.48-2.06,1.93-3.16,2.29-2.45.81-2.17-2.64-3.34-4.51-.49-.79-1.79-1.09-2.59-.72-.47.21-.95.65-1.07,1.09l-.68,2.59c-.39,1.5-2.29,1.8-3.79,1.58-1.06-.16-1.68.12-2.04,1.08-.2.54.14,1.53,1.1,1.69.76.13,1.59-.45,2.43-.56,3.81-.49,1.55,5.86,4.3,6.41.83.16,1.95-.44,2.44-1.02.67-.8.45-1.95.93-2.72.45-.73,1.55-.43,2.26-.6.84-.2,1.68-.6,2.51-.16,1.8.95.23,9.22.47,10.71.12.69-.16,2.06-1.15,2.07l-32.97.09c-.89,0-1.66.6-2.62.32-.9-.26-1.76.18-2.57.26-1.68.16-3.24-2.39-2.57-4.68.92-3.14,2.28-3.02,3.73-6-.49-1.32-1.49-2.13-2.6-2.83-2.06-1.31-.49-2.93-2.58-3.92-.21.13-.19-.15,0,0-.24,1.33-.63,2.8-1.47,4.06-1.21,1.81-2.95,2.53-2.24,5.78.21.97,1.06,1.28,1.61,2.06.66.94,1.69,2.53,1.41,3.74-.36,1.58-2.43,2.65-3.74,2.22,1.62.53-4.11-.97-4.43-1.02-.96-.14-1.92.02-2.87-.04-1.52-.09-2.4.94-2.88,2.18-1.24,3.21,1.45,4.77-.08,8.92-.23.62-.21,1.63-.9,1.94-1.4.63-2.89,1.03-4.43,1.3l-1.85.32c-2.01.35-7.15-.15-9.11-1.18-2.91-1.53-4.26-3.33-3.66-6.92l.36-2.15c.26-1.57.41-2.85-.11-4.46v-69.32s.28-1.93.28-1.93c.33-2.19.26-4.49-.04-6.72-.2-1.48-1.48-2.69-1.87-4.13l-.47-1.72c-.11-.38.21-.72.24-1.08.2-2.64,3.09-1.74,2.02-5.5-.42-1.47.58-2.94,1.86-3.56,2.87-1.38-1.53-6.35-.88-11.38.33-2.52,2.03-5.72,1.91-7.48-.1-1.48-2.37-6.92-2.22-8.67.27-3.24,2.42-5.79,1.39-9.43l-1.03-3.63c-.25-.88-.05-1.9-.05-2.81,0-1.82,2.1-3.24,1.36-6.47l-1-4.35c-1.11-4.81,4.21-8.09,1.89-11.64-1.84-2.83-1.37-3.35-1.68-4.07-.38-.91-.06-1.51-.02-2.32.17-3.33,2.45-4.23,1.45-8.16-.4-1.58-1.35-2.94-2.08-4.36-1.39-2.67-1.25-2.46-.59-5.72.35-1.71,1.74-2.88,2.33-4.41.17-1.54.6-5.98-1.67-6.1-1.4-.07-2.24-1.11-2.2-2.52.04-1.81,1.8-3.9,1.8-5.75l.02-15.81c0-2.17-2.34-3.18-3.06-4.47-.98-1.78-.19-3.78-.19-3.82.04-1.56,2.05-1.39,2.03-2.11-.01-.31-.25-.67-.2-1.1.47-4.32-2.79-3.16-3.43-6.7-.16-.88-.38-1.6.06-2.42.9-1.69,3.16-1.82,1.33-6.49-.45-1.14-.68-2.33-1.38-3.32l-1.95-2.73c-2.22-3.12-7.22-6.11-8.47-8.12-.48-.78-1.26-1.37-1.54-2.42-.43-1.65-.64-3.44-1.5-5-3.64-6.59-4-4.22-6.61-6.28-2.42-1.9-6.04-2.26-7.11-2.99-5.71-3.92-5.66-2.69-9.17-8.78-.81-1.41-1.72-4.66-1.92-6.32l-.43-3.53c-.23-1.91-.2-3.84.09-5.74l.35-2.22.34-2.51c.62-4.53,3.49-8.9,6.17-12.5,3.7-4.96,11.51-5.93,14.14-11.06l4.38-8.54c.8-1.56,1.7-3.04,2.86-4.33l1.36-1.52c.36-.4,5.14-4.08,5.89-4.57,6.99-4.58,13.56-4.6,13.63-4.63.72-.37,1.56-.16,2.24-.35,1.99-.56,4-.09,5.89.51,4.08,1.3,6.01,2.32,9.69,4.35,1.6.88,3.01,1.62,4.14,3.12,1.57,2.1,2.93,3.41,3.7,6.36s1.8,6.05,3.49,8.73c.63,1,1.74,1.63,2.47,2.55.29.37.85.35,1.18.61,1.11.89,2.33,1.27,3.65,1.78l4.13,1.58c2.71,1.04,3,.68,5.68,2.99l2.49,2.15c4.58,3.95,2.87,3.07,5.2,8.17.77,1.68,1.4,3.37,1.12,5.31-.12.81.24,1.47.31,2.22.36,4.19-.42,7.65-.29,8.58.17,1.31-.01,2.56-.58,3.71l-2.03,4.08-.68.75c-2.7,2.96-1.23,1.83-5.31,4.79-3.47,2.53-4.59,2.81-7.33,4.56l-3.72,2.37c-.77.49-1.57.72-2.23,1.39-.59.61-1.56.82-2.11,1.47-2.62,3.11-2.77,7.37-7.75,13.11-2.18,2.52-3.85,4.75-4.94,8.04-.18.56-.85.85-1.12,1.38-.32.65-.33,1.35-.69,1.83-.25.5-.27.94,0,1.44l.34,2.1c.13.8-.92,1.65-.66,2.52.32,1.07.98,1.94,1.04,2.94-.24.28-.23.45,0,.72-.6,2.28-2.04,2.54-2.94,3.91-.73,1.11-.99,2.89-.4,4.1.42.87.92,1.5,1.18,2.45,1.78,6.43-2.33,4.47-1.75,10.37.08.77-.36,1.27-.37,1.89v15.01c.14.91,1.22,1.56,1.6,2.32.99,1.94-1.14,2.9-2.08,4.1-1.07,1.38-1.25,2.98-1.55,4.61-1.2,6.53,2.46,8.69,1.49,11.18-1.34,3.46-2.98,3.43-.43,7.13,1.26,1.84,1.15,7.47.4,9.76l-.97,2.98c1.69,3.29,2.62,7.15.79,10.49-1.17,2.14-1.69,6.29-.45,7.95s1.77,3.85,1.33,5.86c-.78,3.53-2.13,3.95-2.33,7.02-.08,1.24.65,2.22,1.07,3.25,2.27,5.58-.68,9.49-.69,10.8,0,1.06-.18,2.16.05,3.18.38,1.62,1.14,3.06,1.32,4.75s.12,4.43-1.13,5.61c-2.33,2.21-1.53,5.29.36,6.69,2.09,1.56.61,4.02,1.41,4.66,1.98,1.56,1.88,5.58.32,7.71-.39.53-.04,1.3-.28,1.84-.43,1-.3,1.72-.03,2.69.22.79-.18,5.13.73,6.09l1.64,1.73c.22.23.52.36.84.36l10.2.02c-.07,2.2.13,4.27-.08,6.41-.27,2.82-4.11,3.88-2.28,6.77.84,1.32,3.51,2.84,3.02,4.37s-.67,3.41.72,4.48c2.51-1.26.96-5.95,1.67-6.75l2.88-3.22c.57-.64.25-2.11.08-3.03s-.77-1.85-1.28-2.63c-1.24-1.9-1.69-.18-1.48-6.07l14.3.1c.73,0,1.41.33,2.23.33l12.58-.05,1.45-.35h5.04s1.44-.36,1.44-.36l5.11.14c.14.27.29.45.29.58-.13.72-.25,1.44-.36,2.16l-.2,2.16c-.14.49-.06.97-.16,1.44,0,.11-.12.72,0,1.08v5.4l-.36.36c-.04.24-.28.39-.69.38l-5.05-.05c-1.45-.01.26-2.92-2.66-4.88-.48-.32-1.43-.23-1.88,0-1.12.56-1.39,1.76-1.59,2.74-.22.27-.22.51,0,.72-.07.36-.37.64-.72.72-.14-.21-.22-.21-.36,0-.4.14-.9-.29-1.35-.2-1.31.29-1.73,1.73-1.47,2.82.63,2.58,3.41,1.18,4.46,2.01,1.19.94-.12,4.14,2.48,4.41.62.06.82-.45,1.08-.95l1.22-2.36c.45-.87,4.86.28,6.37.17.4.25.51.97.52,1.3-.12.73-.24,1.45-.36,2.16-.24,2.65.34,6.1-.36,8.63M291.32,249.49c-.02.11-.02.23,0,.35-.22.17-.21.48-.1.86l.68,2.26c.92,3.07-1.46,4.8-2.44,6.52-.68,1.19-1.17,2.97-.68,4.29l2.41,6.48c.58,1.55.4,3.4.05,5.03-.71,3.31-3.84,6.18-1.04,10.36,1.37,2.03,1.6,4.63.73,6.92l-1.56,4.09c-.89,2.33-.45,4.35.53,6.47s1.4,4.67,2,7.04c.9,3.56-.78,5.86-2.08,9.04-.61,1.5-.77,3.13-.93,4.76-.2,1.94.39,3.61,1.35,5.18.83,1.37.87,3,1.21,4.54,1.59,7.32-3.71,7.59-1.22,15.19.89,2.71,1.89,6.6-1.28,8.26-1.87.98-.9,2.98-.25,4.4,2.13,4.66-.08,6.37.65,9.1s1.07,5.51.88,8.4c-.12,1.83.1,3.57.08,5.4l-.18,12.81c-.04,2.74-.03,5.37.03,8.12l.23,11.09.39,9.73c.19,4.74.58,9.26.64,14.02l.13,10.44.24,8.91c2.55-.15,5.16-.06,7.41-1.16,2.69-1.31.56-6.25.53-9.56-.02-1.96-.23-3.8-.33-5.75l-.31-5.76-.35-12.96-.11-16.54-.34-4.33v-18.33c0-3.04.23-5.85.47-8.68.42,2.74.44,5.21.55,7.95l.24,5.77.08,12.93.1,10.08.27,16.18.4,11.15c.02.63,0,7.47.86,5.86,1.64-3.06,7.36-1.86,10.33-1.17.64.15,1.91-.28,1.56-1.07-.5-1.14-5.22-4.61-3.48-8.4.73-1.59,2.1-2.78,2.73-4.44.73-1.92,1.28-4.96,3.85-4.1,1.58.53,2.53,2,2.88,3.59.33,1.49,5.86,3.76,3.25,7.31l-2.42,3.3c-.72.98-1.33,3.01-.1,3.85.17.11.38.15.58.14l12.34-.34c2.44-.07,4.74-.19,7.2.04,1.98.19,3.89-.09,5.84-.07l8.2.12,4.13-.14c.28-2.41.95-6.44.5-8.71-.29-.46-1.24-.31-1.73-.33-1.1-.03-.71.7-1.19,2.62-.6,2.4-2.94,3.46-5.21,2.54-3.24-1.31-2.67-5.31-3.22-6.1-.5-.71-4,.64-5.74-1.51-1-1.23-.7-3.1.17-4.3,2.03-2.79,5.07-.67,6.15-2,.57-.7.52-3.6,2.34-4.46s3.9.21,4.72,2.06c.44.98.4,2.1.99,2.97.76.35,2.09-.04,2.76-.63-.16-3.09.64-7.7-.13-10.26-.18-.6-.74-.65-1.25-.65-2.32-.04-4.52-.31-6.86-.13-1.55.12-2.14,2.74-4.38,3.11-3.17.52-4.76-1.65-7.31-2.64-.96-.37-2.79-.86-3.57-.02-.7.76-.06,2.44.38,3.22,1.73,3.07,3.84,5.88,1.81,8.77s-1.33,5.06-3.15,5.77c-.75.29-1.76.08-2.41-.44-2.18-1.75-.64-3.44-3.18-5.77-1.1-1.01-1.62-2.74-1.35-4.23.46-2.51,3.35-4.33,1.66-7.25-1.42-.28-3.15-.1-4.66,0-.93.06-1.48.88-2.2,1.35-3.51,2.28-6.34.59-9.21-1.43-2.21-1.56-8.04,1.22-9.81-2.87-.67-1.55-.29-3.3,1.42-3.91,4.18-1.49,7.44.68,10.08-2.19,1.29-1.4,3.03-1.9,4.87-1.14,1.52.63,2.7,1.75,3.81,2.95,1.89-.23,5,.08,6.09-.35.32-.44.41-1.72,0-2.11l-1.27-1.2c-1.17-1.11-2.77-7.24.68-9.56.35-2.48.16-4.49,2.57-6.07.4-.26.85-1.16,1.48-1.06,4.23,2.98,2.47,6.65,4,7.88,2.28,1.83,2.61,4.84.84,7.16-2,2.63-1.19,1.64-1.62,5.85.87.11,1.7.08,2.52-.05,1.64-3.15,4.89-4.86,8.42-3.34s.41,3.03,6.68,3.04h5.41s.1-7.12.1-7.12c.01-.81.56-1.72.11-2.57-.87-.35-2.01,0-3.08-.27-1.25-.32-.27,2.78-3.14,4.28-1.88.98-4.27.4-5.54-1.71-.53-.88-.26-1.93-.48-2.92-1.18-.17-2.39-.2-3.41-.85-2.38-1.5-2.36-4.8-.99-6.19,1.68-1.71,2.58-.72,4.46-1.11.23-1.2.51-2.36,1.33-3.29,1.03-1.16,2.89-1.18,4-.09,1.2,1.17,1.55,2.83,1.66,4.54,1.74.41,3.03-.34,4.41.28,1.77.8.6-2.63,1.04-6.29.09-.74.42-1.39.3-2.23-.25-1.76.43-3.01.14-3.6-.27-.56-4.05-.08-5.21.03-2.92.28-5.7.39-8.63.37l-13.66-.07-7.56.03-5.16-.35c-1.08,4.75,1.82,4.42,2.79,7.32.64,1.91,0,4.07-1.3,5.52-.7.78-1.73,1.17-2.25,2.06-.67,1.12.79,4.84-1.75,6.5-.63.41-1.38.5-1.94.29s-1.05-.72-1.33-1.42c-.96-2.4.84-3.63-.64-4.78-1.24-.97-2.53-2.16-2.98-3.75-.71-2.52.42-5.06,2.25-6.76s1.48-2.24,1.46-4.63c-.02-2.56-12.54,3.38-13.34-5.38-.26-2.84-.83-7.69.48-9.98.97-1.69,1.11-4.79-.76-5.87,0-.16,0-.35-.07-.77-.15-1.03.12-2.3-.56-3.31-1.15-1.72-2.28,0-1.85-6.67.04-.57.41-1.02.72-1.47,2.38-3.53,1.22-5.37.15-9.12-1.85-6.49,3.96-7.81,0-15.88-1.04-2.13-.3-4.79.78-6.76,2.78-5.13-.36-7.51-.77-9.1-.78-3.07.06-5.9,1.27-8.69,1-2.29.41-4.99-.54-7.17-.53-1.22-.77-2.15-.25-3.47,1.28-3.26,1.7-7.21.11-10.44-1.02-2.07-2.65-3.43-.09-7.09,2.13-3.04-2.55-4.34-.69-12.93.5-2.33,1.25-4.36,3.3-5.76,1.86-1.28-1.17-2.7-1.43-5.47-.15-1.66-.2-3.3-.17-4.99l.12-7.92.51-5.89c.08-.95.5-1.6,1.2-2.5l-4.66.13c-.37.01-.42-.36-.34-.55.18-.42,4.62.02,5.6-.27.75-2.25-.25-4.15-1.22-6.05-1.2-2.33-.06-5.13,1.78-6.73.49-.42,1.01-.71,1.24-1.28,1.03-2.59-1.67-3.24-.42-5.77.85-1.72-1.03-3.84,1.06-6.57,1.31-1.71,2.26-5.55,4.49-8.12s4.3-5.34,5.79-8.57l1.92-4.18c.7-1.51,1.76-2.52,3.04-3.49,1.88-1.42,5.54-3.75,7.65-4.94,2.53-1.42,4.82-3.04,7.21-4.71,1.67-1.17,3.17-2.55,4.34-4.24,2.74-3.96,2.31-5.46,2.68-9.46.22-2.32.24-9.32-.36-10.93l-1.99-5.3c-.54-1.43-1.46-2.68-2.64-3.65-1.73-1.43-3.34-2.96-5.21-4.21-1.74-1.16-7.54-2.65-10.72-4.35-2.91-1.56-4.9-4.18-6.33-7.1-2.34-4.79-2.41-10.25-7.02-13.7-2.03-1.52-4.37-2.34-6.56-3.52-1.95-1.04-3.98-1.7-6.11-2.26-1.62-.42-7.99.42-9.95.93-1.41.37-2.59,1.17-3.87,1.8-3.65,1.8-6.63,4.29-9.27,7.34-1.4,1.62-2.66,3.13-3.59,5.09-.62,1.3-1.37,2.49-1.79,3.91-.6,1.99-3.2,6.77-4.82,8.15-2.5,2.13-6.25,2.56-9.28,3.98-2.85,1.35-6.79,5.22-8.06,7.83l-1.63,3.36c-1.31,2.7-1.41,5.74-1.41,8.73,0,2.3.74,4.2,1.91,6.07s2.11,3.77,3.62,5.38c1.34,1.43,7.22,6.04,8.9,6.6l5.36,1.8c3.9,1.31,8.96,6.11,10.75,10.36.74,1.75,1.49,3.24,2.44,4.87,1.97,3.37,4.32,11.32,9.47,9.43,2.58-.95,5.39-.84,7.49,1.01s3.02,5.93.81,8.46c-.78.9-.97,1.83-.79,2.74.24,1.18,1.04,1.63,1.98,2.34.81.61.18,1.89-.4,2.54-3.7,4.04-2.23,4.16-1.98,8.28.23,3.78-1.79,3.6-2.16,4.88-1.74,6.08.75,4.89,1.93,9.13.49,1.77.82,3.43.7,5.37l-.41,6.47-.96,6.82c-.11.77.31,1.35.93,1.42Z"/>
  <path class="st6" d="M305.09,200.59c-.25-.11-.33-.35-.39-.55-.17-.52.19-.63.39-.89v1.44Z"/>
  <path class="st6" d="M305.81,208.86c-.19.05-.32-.07-.36-.19-.11-.31.08-.6.36-.53.01.22.03.51,0,.72Z"/>
  <path class="st8" d="M300.35,358.84c-.04.21-.09.38-.16.39-3.46.48-3.43-.41,0,0,.09.01.16.18.23.38,1.87,1.08,1.72,4.18.76,5.87-1.31,2.29-.74,7.14-.48,9.98.8,8.76,13.32,2.82,13.34,5.38.02,2.39.28,3.01-1.46,4.63-1.83,1.7-2.96,4.25-2.25,6.76.45,1.59,1.74,2.79,2.98,3.75,1.47,1.15-.32,2.37.64,4.78.28.7.77,1.2,1.33,1.42s1.31.13,1.94-.29c2.54-1.66,1.09-5.38,1.75-6.5.53-.89,1.55-1.28,2.25-2.06,1.31-1.45,1.94-3.62,1.3-5.52-.98-2.9-3.88-2.57-2.79-7.32l5.16.35,7.56-.03,13.66.07c2.93.01,5.71-.1,8.63-.37,1.16-.11,4.94-.58,5.21-.03.29.6-.39,1.84-.14,3.6.12.83-.21,1.48-.3,2.23-.44,3.66.73,7.1-1.04,6.29-1.38-.62-2.67.13-4.41-.28-.11-1.68-.45-3.31-1.6-4.48s-2.94-1.21-4.04.02c-.83.93-1.12,2.09-1.35,3.3-1.88.39-2.78-.6-4.46,1.11-1.36,1.39-1.39,4.68.99,6.19,1.02.65,2.23.67,3.41.85.23.99-.05,2.04.48,2.92,1.28,2.11,3.66,2.69,5.54,1.71,2.88-1.5,1.89-4.6,3.14-4.28,1.07.27,2.21-.07,3.08.27.45.85-.1,1.76-.11,2.57l-.1,7.13h-5.41c-6.26-.02-3.01-1.47-6.68-3.05s-6.77.19-8.42,3.34c-.82.13-1.65.16-2.52.05.43-4.21-.38-3.22,1.62-5.85,1.76-2.31,1.44-5.32-.84-7.16-1.53-1.23.23-4.9-4-7.88-.63-.1-1.08.8-1.48,1.06-2.4,1.57-2.21,3.58-2.57,6.07-3.46,2.32-1.86,8.45-.68,9.56l1.27,1.2c.42.39.33,1.68,0,2.11-1.09.43-4.2.12-6.09.35-1.11-1.21-2.29-2.32-3.81-2.95-1.84-.76-3.59-.26-4.87,1.14-2.64,2.87-5.9.7-10.08,2.19-1.72.61-2.09,2.36-1.42,3.91,1.76,4.09,7.59,1.31,9.81,2.87,2.86,2.02,5.7,3.71,9.21,1.43.72-.47,1.27-1.29,2.2-1.35,1.51-.1,3.24-.28,4.66,0,1.69,2.92-1.2,4.74-1.66,7.25-.27,1.49.25,3.22,1.35,4.23,2.54,2.34,1,4.03,3.18,5.77.65.52,1.67.73,2.41.44,1.82-.71,1.1-2.86,3.15-5.77s-.07-5.7-1.81-8.77c-.44-.78-1.08-2.45-.38-3.22.78-.85,2.61-.36,3.57.02,2.55.99,4.14,3.16,7.31,2.64,2.24-.37,2.83-2.99,4.38-3.11,2.34-.17,4.54.09,6.86.13.52,0,1.08.06,1.25.65.77,2.57-.03,7.17.13,10.26-.67.59-2.01.98-2.76.63-.59-.88-.55-1.99-.99-2.97-.82-1.85-2.82-2.96-4.72-2.06s-1.77,3.75-2.34,4.46c-1.07,1.32-4.11-.79-6.15,2-.87,1.2-1.17,3.07-.17,4.3,1.74,2.15,5.24.8,5.74,1.51.55.78-.02,4.79,3.22,6.1,2.28.92,4.62-.14,5.21-2.54.48-1.92.08-2.65,1.19-2.62.5.02,1.44-.13,1.73.33.45,2.27-.22,6.3-.5,8.71l-4.13.14-8.2-.12c-1.95-.03-3.86.25-5.84.07-2.45-.23-4.76-.11-7.2-.04l-8.27.23c-1.4.04-3.26.72-4.49.06-1.44-.77-.81-2.92-.06-3.94l2.42-3.3c2.61-3.55-2.93-5.82-3.25-7.31-.35-1.59-1.3-3.06-2.88-3.59-2.57-.86-3.12,2.18-3.85,4.1-.63,1.66-2,2.85-2.73,4.44-1.75,3.79,2.98,7.26,3.48,8.4.35.79-.92,1.22-1.56,1.07-2.97-.7-8.69-1.89-10.33,1.17-.86,1.61-.84-5.23-.86-5.86l-.4-11.15-.27-16.18-.1-10.08-.08-12.93-.24-5.77c-.11-2.74-.13-5.21-.55-7.95-.24,2.83-.48,5.64-.48,8.68v18.33s.35,4.33.35,4.33l.11,16.54.35,12.96.31,5.76c.1,1.95.31,3.79.33,5.75.03,3.31,2.16,8.24-.53,9.56-2.24,1.1-4.85,1-7.41,1.16l-.24-8.91-.13-10.44c-.06-4.75-.45-9.28-.64-14.02l-.39-9.73-.23-11.09c-.06-2.75-.07-5.38-.03-8.12l.18-12.81c.03-1.83-.2-3.57-.08-5.4.19-2.89-.15-5.65-.88-8.4s1.48-4.43-.65-9.1c-.65-1.41-1.61-3.42.25-4.4,3.17-1.66,2.17-5.55,1.28-8.26-2.5-7.6,2.81-7.87,1.22-15.19-.34-1.55-.38-3.17-1.21-4.54-.96-1.58-1.55-3.24-1.35-5.18.16-1.62.32-3.26.93-4.76,1.3-3.18,2.98-5.48,2.08-9.04-.6-2.37-.98-4.83-2-7.04s-1.41-4.13-.53-6.47l1.56-4.09c.89-2.35.64-4.86-.75-6.94-2.78-4.17.34-7.03,1.05-10.34.35-1.63.52-3.48-.05-5.03l-2.41-6.48c-.49-1.32,0-3.1.68-4.29.98-1.72,3.37-3.45,2.44-6.52l-.68-2.26c-.11-.38-.12-.69.1-.86.52-.38,1.16-.48,1.9-.32.41-.12.41-.24,0-.36-.32.52-1.36.41-1.9.34-.61-.08-1.04-.65-.93-1.42l.96-6.82.41-6.47c.12-1.95-.21-3.6-.7-5.37-1.18-4.24-3.68-3.05-1.93-9.13.37-1.29,2.39-1.1,2.16-4.88-.25-4.12-1.72-4.24,1.98-8.28.59-.64,1.21-1.93.4-2.54-.94-.7-1.74-1.16-1.98-2.34-.18-.91,0-1.84.79-2.74,2.21-2.53,1.22-6.68-.81-8.46s-4.91-1.96-7.49-1.01c-5.15,1.89-7.49-6.06-9.47-9.43-.95-1.62-1.7-3.12-2.44-4.87-1.79-4.25-6.85-9.05-10.75-10.36l-5.36-1.8c-1.68-.56-7.56-5.17-8.9-6.6-1.51-1.61-2.46-3.53-3.62-5.38s-1.91-3.77-1.91-6.07c0-3,.09-6.03,1.41-8.73l1.63-3.36c1.27-2.61,5.21-6.49,8.06-7.83,3.02-1.43,6.78-1.86,9.28-3.98,1.62-1.38,4.22-6.16,4.82-8.15.42-1.42,1.17-2.61,1.79-3.91.93-1.96,2.19-3.47,3.59-5.09,2.64-3.05,5.62-5.54,9.27-7.34,1.28-.63,2.46-1.43,3.87-1.8,1.96-.51,8.33-1.36,9.95-.93,2.13.56,4.16,1.22,6.11,2.26,2.2,1.18,4.54,2,6.56,3.52,4.61,3.46,4.68,8.92,7.02,13.7,1.43,2.92,3.42,5.55,6.33,7.1,3.17,1.7,8.98,3.19,10.72,4.35,2,1.34,3.69,2.99,5.56,4.5,1.09.88,1.81,2.09,2.31,3.41l1.97,5.25c.6,1.62.58,8.61.36,10.93-.37,4,.06,5.5-2.68,9.46-1.17,1.68-2.67,3.07-4.34,4.24-2.38,1.67-4.67,3.29-7.21,4.71-2.11,1.18-5.78,3.51-7.65,4.94-1.28.97-2.35,1.98-3.04,3.49l-1.92,4.18c-1.48,3.23-3.47,5.91-5.79,8.57s-3.18,6.41-4.49,8.12c-2.09,2.73-.22,4.84-1.06,6.57-1.24,2.53,1.45,3.18.42,5.77-.22.57-.75.85-1.24,1.28-1.84,1.6-2.98,4.4-1.78,6.73.97,1.9,1.97,3.79,1.22,6.05-.98.29-5.42-.15-5.6.27-.08.19-.03.56.34.55l4.66-.13c-.7.9-1.12,1.55-1.2,2.5l-.51,5.89-.12,7.92c-.03,1.69.02,3.34.17,4.99.26,2.77,3.29,4.19,1.43,5.47-2.04,1.4-2.79,3.42-3.3,5.76-1.86,8.59,2.82,9.9.69,12.93-2.56,3.66-.93,5.02.09,7.09,1.59,3.23,1.17,7.18-.11,10.44-.52,1.32-.28,2.25.25,3.47.95,2.18,1.54,4.88.54,7.17-1.22,2.79-2.06,5.62-1.27,8.69.41,1.59,3.55,3.96.77,9.1-1.07,1.98-1.82,4.64-.78,6.76,3.96,8.08-1.85,9.39,0,15.88,1.06,3.74,2.23,5.59-.15,9.12-.3.45-.68.89-.72,1.47-.43,6.67.7,4.96,1.85,6.67.68,1.01.41,2.29.56,3.31ZM297.76,186.36c.96-.66,1.41-1.82,1.7-2.89,1.06-3.89-1.07-5.09.81-6.78.98-.89,2.16-1.51,3.41-2.01,3.34-1.35,4.82-5.19,2.85-8.26l-3.66-5.68c-.71-1.11-3.1-5.64-1.14-6.68,1.68-.9,4.22-.94,5.77.24,1.05.8,1.44,2.15,2.22,3.15,2.16,2.75,4.67,4.36,7.96,2.11,4.65-3.18,1.33-5.25,10.67-6.6,4.24-.61,7.19-4.13,6.97-8.52-.11-2.12-.8-4.24-1.83-6.03-1.9-3.32-6.79-2.61-9.68-.56-.3-2.08-.7-3.55-1.68-5.04-1.88-2.87-5.53-3.26-8.12-.97-2.31,2.04-4.11,4.49-5.96,6.95-.77,1.03-1.96,1.44-3.12,1.39-1.02-.04-1.85-.73-2.54-1.66-2.55-3.42,0-6.54,2.89-8.56,5.22-3.64,4.64-11.74,1.65-14.99-1.88-2.05-4.89-6.31-6.01-8.74-.52-1.14-1.31-2.07-1.96-3.14-.88-1.44-2.27-2.48-4.01-2.77-2.32-.39-4.66-.55-7-.24-3.44.45-6.24,4.7-6.87,8.11s1.61,7.85-3.38,11.38c-1.36.96-1.99,2.48-1.43,4.12,1.83,5.35,4.67,5.92,5.38,7.47s1.26,3.5.99,5.29c-.25,1.67-3.43,3.32-4.93,3.99-.7.31-1.44,0-1.86-.53l-4.34-5.36c-1.1-1.36-2.51-2.24-4.16-2.77-2.14-.68-4.18.05-5.55,1.82-3.29,4.24-3.36,2.62-5.24,3.41l-4.21,1.77c-3.36,1.41-6.34,4.56-6.24,8.22.11,3.98,2.52,7.64,6.36,8.71,2.16.6,4.33.22,6.64-.04.59,1.45,1.11,2.87,2.26,4.14,1.31,1.45,3.79,2.34,5.63,1.25,2.11-1.25,4.14-2.78,5.68-4.69,2.06-2.55,5.34-4.01,8.39-2.29.92,3.11,1.18,5.94-1.56,8.04-3.86,2.96-4.25,6.52-2.98,10.94s4.41,3.57,6.35,6.23c1.47,2.02,1.71,5.36,4.23,6.98,3.6,2.31,6.85,2.74,10.64.13Z"/>
  <path class="st6" d="M300.35,358.84c.06.43.06.61.07.77l-4.62-.38c3.08,0-6.25-.2-3.7-.24l8.25-.16Z"/>
  <path class="st6" d="M293.17,249.18c.32-.05.34.33,0,.36-.92.09-1.25.33-1.9.32-.02-.12-.01-.23,0-.35.66-.12,1.26-.37,1.9-.34Z"/>
  <path class="st6" d="M297.76,186.36c-3.79,2.61-7.03,2.19-10.64-.13-2.52-1.62-2.76-4.95-4.23-6.98-1.94-2.66-5.1-1.88-6.35-6.23s-.88-7.98,2.98-10.94c2.74-2.1,2.48-4.92,1.56-8.04-3.05-1.72-6.34-.26-8.39,2.29-1.54,1.91-3.57,3.44-5.68,4.69-1.84,1.09-4.32.2-5.63-1.25-1.15-1.27-1.66-2.68-2.26-4.14-2.32.27-4.48.64-6.64.04-3.85-1.07-6.25-4.72-6.36-8.71-.1-3.66,2.87-6.81,6.24-8.22l4.21-1.77c1.88-.79,1.95.83,5.24-3.41,1.38-1.77,3.42-2.5,5.55-1.82,1.65.53,3.06,1.41,4.16,2.77l4.34,5.36c.43.53,1.17.84,1.86.53,1.5-.66,4.68-2.32,4.93-3.99.27-1.79-.26-3.68-.99-5.29s-3.54-2.12-5.38-7.47c-.56-1.64.07-3.16,1.43-4.12,4.98-3.53,2.72-7.82,3.38-11.38s3.43-7.66,6.87-8.11c2.34-.31,4.68-.15,7,.24,1.74.29,3.12,1.33,4.01,2.77.65,1.07,1.44,2,1.96,3.14,1.12,2.43,4.12,6.69,6.01,8.74,2.99,3.25,3.57,11.35-1.65,14.99-2.9,2.02-5.45,5.13-2.89,8.56.69.93,1.53,1.62,2.54,1.66,1.17.05,2.35-.36,3.12-1.39,1.85-2.46,3.65-4.91,5.96-6.95,2.6-2.29,6.25-1.9,8.12.97.98,1.49,1.38,2.96,1.68,5.04,2.89-2.05,7.77-2.76,9.68.56,1.02,1.79,1.72,3.91,1.83,6.03.22,4.39-2.73,7.9-6.97,8.52-9.33,1.35-6.02,3.42-10.67,6.6-3.29,2.25-5.8.64-7.96-2.11-.78-1-1.17-2.35-2.22-3.15-1.55-1.17-4.09-1.13-5.77-.24-1.95,1.04.43,5.58,1.14,6.68l3.66,5.68c1.98,3.07.5,6.91-2.85,8.26-1.26.51-2.43,1.13-3.41,2.01-1.88,1.7.25,2.89-.81,6.78-.29,1.07-.74,2.23-1.7,2.89ZM295.89,183.81c.81-.49,2.05-.87,2.3-1.95.66-2.83-1.9-5.64,4.25-8.36,1.29-.57,2.54-1.33,3.12-2.63.75-1.69.1-3.35-.88-4.75-.71-1.02-1.19-2.11-1.96-3.08-1.36-1.72-2.9-5.93-3.25-8.17.15-2.17,2.54-4.2,4.6-4.55,6.3-1.07,5.81,2.31,7.15,3.13,1.69,1.03,2.05,3.48,4.28,3.26,1.73-.17,3-1.82,4.65-2.94,4.11-2.78,8.23-2.07,10.7-3.7,1.31-.86,2.64-2.39,2.79-4.05.13-1.46-.61-3.21-1.84-4.12-1.39-1.04-3.34-1.32-4.98-.86-1.17.33-2.07,1.23-3.42,1.27s-3.02-1.01-3.15-2.48c-.12-1.35.13-5.47-1.97-6.02-3.13-.83-5.47,1.25-7.26,3.6l-2.03,2.66c-.64.84-1.41,1.27-2.38,1.61-1.92.69-4.01-.2-5.15-1.88-1.02-1.5-1.7-3.13-1.37-5.07.69-4.01,3.46-5.1,6.19-7.77,2.97-2.89,1.2-7.41-.95-9.01-.56-.42-.77-1.17-1.25-1.61-2.58-2.35-4.1-5.83-5.52-8.94-.72-1.57-2.64-2.46-4.31-2.77-1.54-.29-3.06-.07-4.62-.07-.9,0-4.7,1.36-5.26,3.32-.89,3.1,1.4,4.39.32,8.24-.34,1.2-.74,2.48-1.83,3.22-1.93,1.3-5.62,3.58-4.21,6.59s3.31,2.13,4.37,5.35l1.16,3.51c.17.52.16,1.06.19,1.59.09,2.04-.26,4.46-1.33,5.45-.52.48-.98,1.23-1.62,1.6-2.3,1.31-5.11.72-7.12-.94-1.53-1.26-2.74-2.7-4.18-4.09-2.76-2.66-4.89-2.13-7.52-.14-.97.74-1.64,1.69-2.58,2.52l-4.18.09c-2.29.05-4.11,1.4-5.72,2.9-1.93,1.8-2.04,6.68.39,8.53,3.68,2.8,8.06.77,9.7,1.26.35.1,1.4,0,1.34.57-.23,2.25.55,4.34,2.61,5.33,1.36-.34,2.7-.86,3.75-1.86l4.04-3.84c.49-.47,1.06-.87,1.64-1.23,3.7-2.28,4.85-1.69,5.58-1.54,2.68.47,4.21,2.59,4.52,5.18.09.77.28,1.3,0,2.14-.94,2.92-.12,2.56-.99,5.44-1.19,3.91-2.48,2.11-3.18,6.89-.89,1.25.29,3.3,1.3,3.86l2.31,1.28c3,1.67,3.52,2.51,4.65,5.71,1.01,2.85,5.8,3.71,8.1,2.3Z"/>
  <path class="st6" d="M293.22,249.52l-.15-.34c1.98.11,4.12-.24,6.3.16-2.06.43-4.1.06-6.15.19Z"/>
</svg>
